<svg width="30" height="30" viewBox="0 0 30 30" fill="none" xmlns="http://www.w3.org/2000/svg">
<circle opacity="0.15" cx="15" cy="15" r="15" fill="#3EB942"/>
<path d="M19.287 17.166C19.287 15.636 18.513 14.862 17.811 14.376C18.459 13.962 19.143 13.278 19.143 11.874C19.143 9.66 17.397 8.076 15.021 8.076C12.735 8.076 10.899 9.534 10.899 11.946H13.851C13.851 11.172 14.409 10.74 15.021 10.74C15.633 10.74 16.191 11.154 16.191 11.964C16.191 12.54 15.849 13.17 14.967 13.17H14.553V15.726H14.967C15.759 15.726 16.335 16.302 16.335 17.076C16.335 17.994 15.795 18.444 15.021 18.444C14.283 18.444 13.707 17.994 13.707 17.094H10.755C10.755 19.974 12.897 21.108 15.021 21.108C17.271 21.108 19.287 19.848 19.287 17.166Z" fill="#3EB942"/>
</svg>
