<svg width="96" height="27" viewBox="0 0 96 27" fill="none" xmlns="http://www.w3.org/2000/svg">
<path fill-rule="evenodd" clip-rule="evenodd" d="M64.9836 3.3538L74.6759 13.0461L64.9836 22.7384L68.3374 26.0922L78.7484 15.6812C80.2038 14.2259 80.2038 11.8663 78.7484 10.411L68.3374 0L64.9836 3.3538ZM82.7559 13.0461L73.0636 3.3538L76.4174 0L86.8284 10.411C88.2837 11.8663 88.2837 14.2259 86.8284 15.6812L76.4174 26.0922L73.0636 22.7384L82.7559 13.0461ZM90.8359 13.0461L81.1436 3.3538L84.4974 0L94.9083 10.411C96.3637 11.8663 96.3637 14.2259 94.9083 15.6812L84.4974 26.0922L81.1436 22.7384L90.8359 13.0461Z" fill="#5E6972" fill-opacity="0.51"/>
<path d="M12.022 19.7708L11.9849 12.8998L8.65126 18.4929H7.02148L3.70635 13.085V19.7708H0.317139V6.80666H3.33594L7.89193 14.2888L12.3368 6.80666H15.3556L15.3926 19.7708H12.022Z" fill="#394044"/>
<path d="M31.1006 6.80666L25.5445 19.7708H21.933L16.3955 6.80666H20.3588L23.8777 15.2519L27.4706 6.80666H31.1006Z" fill="#394044"/>
<path d="M37.786 6.80666C38.9589 6.80666 39.9775 7.00421 40.8418 7.3993C41.7061 7.78206 42.3728 8.33767 42.842 9.06613C43.3112 9.78225 43.5458 10.628 43.5458 11.6034C43.5458 12.5788 43.3112 13.4246 42.842 14.1407C42.3728 14.8568 41.7061 15.4124 40.8418 15.8075C39.9775 16.1903 38.9589 16.3816 37.786 16.3816H35.5265V19.7708H31.8595V6.80666H37.786ZM37.5637 13.4925C38.3169 13.4925 38.8848 13.332 39.2676 13.0109C39.6503 12.6776 39.8417 12.2084 39.8417 11.6034C39.8417 10.9984 39.6503 10.5292 39.2676 10.1959C38.8848 9.8625 38.3169 9.69582 37.5637 9.69582H35.5265V13.4925H37.5637Z" fill="#394044"/>
<path d="M50.7343 15.4344H47.211L46.5388 17.0606H44.7392L48.1216 9.47177H49.8562L53.2495 17.0606H51.4065L50.7343 15.4344ZM50.1814 14.1009L48.9781 11.1955L47.7747 14.1009H50.1814Z" fill="#394044"/>
<path d="M58.6468 17.1907C57.8735 17.1907 57.1725 17.0244 56.5437 16.692C55.9221 16.3523 55.4306 15.8861 55.0693 15.2935C54.7151 14.6936 54.5381 14.0178 54.5381 13.2662C54.5381 12.5145 54.7151 11.8424 55.0693 11.2497C55.4306 10.6498 55.9221 10.1837 56.5437 9.85121C57.1725 9.51152 57.8771 9.34167 58.6577 9.34167C59.3154 9.34167 59.908 9.45731 60.4356 9.68859C60.9705 9.91987 61.4186 10.2523 61.7799 10.686L60.6525 11.7267C60.1393 11.1341 59.5033 10.8378 58.7444 10.8378C58.2746 10.8378 57.8554 10.9425 57.4868 11.1521C57.1182 11.3545 56.8292 11.64 56.6196 12.0086C56.4172 12.3772 56.316 12.7964 56.316 13.2662C56.316 13.7359 56.4172 14.1551 56.6196 14.5237C56.8292 14.8923 57.1182 15.1814 57.4868 15.391C57.8554 15.5934 58.2746 15.6946 58.7444 15.6946C59.5033 15.6946 60.1393 15.3946 60.6525 14.7948L61.7799 15.8355C61.4186 16.2764 60.9705 16.6125 60.4356 16.8437C59.9008 17.075 59.3045 17.1907 58.6468 17.1907Z" fill="#394044"/>
<path d="M67.523 17.1907C66.7497 17.1907 66.0486 17.0244 65.4198 16.692C64.7983 16.3523 64.3068 15.8861 63.9455 15.2935C63.5913 14.6936 63.4142 14.0178 63.4142 13.2662C63.4142 12.5145 63.5913 11.8424 63.9455 11.2497C64.3068 10.6498 64.7983 10.1837 65.4198 9.85121C66.0486 9.51152 66.7533 9.34167 67.5339 9.34167C68.1916 9.34167 68.7842 9.45731 69.3118 9.68859C69.8466 9.91987 70.2947 10.2523 70.6561 10.686L69.5286 11.7267C69.0155 11.1341 68.3795 10.8378 67.6206 10.8378C67.1508 10.8378 66.7316 10.9425 66.363 11.1521C65.9944 11.3545 65.7053 11.64 65.4957 12.0086C65.2934 12.3772 65.1922 12.7964 65.1922 13.2662C65.1922 13.7359 65.2934 14.1551 65.4957 14.5237C65.7053 14.8923 65.9944 15.1814 66.363 15.391C66.7316 15.5934 67.1508 15.6946 67.6206 15.6946C68.3795 15.6946 69.0155 15.3946 69.5286 14.7948L70.6561 15.8355C70.2947 16.2764 69.8466 16.6125 69.3118 16.8437C68.777 17.075 68.1807 17.1907 67.523 17.1907Z" fill="#394044"/>
<path d="M78.8021 15.6512V17.0606H72.9262V9.47177H78.6612V10.8811H74.6717V12.529H78.195V13.895H74.6717V15.6512H78.8021Z" fill="#394044"/>
<path d="M83.7771 17.1907C83.1772 17.1907 82.5954 17.1112 82.0317 16.9522C81.4752 16.7859 81.0271 16.5727 80.6874 16.3125L81.2836 14.9899C81.6089 15.2284 81.9955 15.4199 82.4436 15.5645C82.8917 15.709 83.3398 15.7813 83.7879 15.7813C84.2866 15.7813 84.6552 15.709 84.8937 15.5645C85.1322 15.4127 85.2515 15.214 85.2515 14.9682C85.2515 14.7875 85.1792 14.6394 85.0347 14.5237C84.8974 14.4009 84.7167 14.3033 84.4926 14.231C84.2758 14.1588 83.9795 14.0793 83.6036 13.9925C83.0255 13.8552 82.5521 13.7179 82.1835 13.5806C81.8149 13.4432 81.4969 13.2228 81.2294 12.9192C80.9693 12.6157 80.8392 12.211 80.8392 11.705C80.8392 11.2642 80.9584 10.8667 81.1969 10.5125C81.4354 10.1511 81.7932 9.86566 82.2702 9.65607C82.7544 9.44647 83.3435 9.34167 84.0373 9.34167C84.5215 9.34167 84.9949 9.39949 85.4575 9.51513C85.92 9.63077 86.3248 9.797 86.6717 10.0138L86.1296 11.3473C85.4286 10.9498 84.7275 10.751 84.0265 10.751C83.535 10.751 83.17 10.8305 82.9315 10.9895C82.7002 11.1485 82.5846 11.3581 82.5846 11.6183C82.5846 11.8785 82.7183 12.0736 82.9857 12.2037C83.2603 12.3266 83.6759 12.4495 84.2324 12.5723C84.8106 12.7097 85.284 12.847 85.6526 12.9843C86.0212 13.1216 86.3356 13.3384 86.5958 13.6348C86.8632 13.9311 86.9969 14.3322 86.9969 14.8381C86.9969 15.2718 86.8741 15.6693 86.6283 16.0307C86.3898 16.3848 86.0284 16.6667 85.5442 16.8763C85.06 17.0859 84.4709 17.1907 83.7771 17.1907Z" fill="#394044"/>
<path d="M91.7746 17.1907C91.1747 17.1907 90.5929 17.1112 90.0291 16.9522C89.4726 16.7859 89.0245 16.5727 88.6848 16.3125L89.2811 14.9899C89.6063 15.2284 89.993 15.4199 90.4411 15.5645C90.8892 15.709 91.3373 15.7813 91.7854 15.7813C92.2841 15.7813 92.6527 15.709 92.8912 15.5645C93.1297 15.4127 93.249 15.214 93.249 14.9682C93.249 14.7875 93.1767 14.6394 93.0321 14.5237C92.8948 14.4009 92.7141 14.3033 92.4901 14.231C92.2732 14.1588 91.9769 14.0793 91.6011 13.9925C91.0229 13.8552 90.5495 13.7179 90.1809 13.5806C89.8123 13.4432 89.4943 13.2228 89.2269 12.9192C88.9667 12.6157 88.8366 12.211 88.8366 11.705C88.8366 11.2642 88.9559 10.8667 89.1944 10.5125C89.4329 10.1511 89.7906 9.86566 90.2676 9.65607C90.7519 9.44647 91.3409 9.34167 92.0347 9.34167C92.519 9.34167 92.9924 9.39949 93.4549 9.51513C93.9175 9.63077 94.3222 9.797 94.6691 10.0138L94.1271 11.3473C93.426 10.9498 92.725 10.751 92.0239 10.751C91.5324 10.751 91.1675 10.8305 90.929 10.9895C90.6977 11.1485 90.582 11.3581 90.582 11.6183C90.582 11.8785 90.7157 12.0736 90.9832 12.2037C91.2578 12.3266 91.6734 12.4495 92.2299 12.5723C92.8081 12.7097 93.2815 12.847 93.6501 12.9843C94.0187 13.1216 94.3331 13.3384 94.5933 13.6348C94.8607 13.9311 94.9944 14.3322 94.9944 14.8381C94.9944 15.2718 94.8715 15.6693 94.6258 16.0307C94.3873 16.3848 94.0259 16.6667 93.5417 16.8763C93.0574 17.0859 92.4684 17.1907 91.7746 17.1907Z" fill="#394044"/>
</svg>
